<?xml version="1.0" standalone="no"?>
<!DOCTYPE svg PUBLIC "-//W3C//DTD SVG 20010904//EN"
 "http://www.w3.org/TR/2001/REC-SVG-20010904/DTD/svg10.dtd">
<svg version="1.0" xmlns="http://www.w3.org/2000/svg"
 width="400.000000pt" height="400.000000pt" viewBox="0 0 400.000000 400.000000"
 preserveAspectRatio="xMidYMid meet">
<metadata>
Created by potrace 1.11, written by Peter Selinger 2001-2013
</metadata>
<g transform="translate(0.000000,400.000000) scale(0.100000,-0.100000)"
fill="#000000" stroke="none">
<path d="M1473 3742 c-19 -3 -33 -31 -92 -180 -38 -97 -127 -321 -196 -497
-145 -366 -402 -1017 -607 -1535 -77 -195 -144 -364 -149 -375 -15 -35 -281
-709 -286 -728 -5 -15 3 -17 74 -17 l79 0 93 238 c52 130 145 365 207 522 165
418 666 1687 805 2038 65 167 119 307 119 313 0 37 28 -21 104 -213 48 -123
93 -236 101 -253 7 -16 79 -199 159 -405 81 -206 152 -384 156 -395 5 -11 23
-56 40 -100 17 -44 35 -89 40 -100 5 -11 64 -159 131 -330 67 -170 177 -449
244 -620 68 -171 157 -395 198 -500 l75 -190 82 -3 c45 -2 80 1 77 5 -3 4 -85
211 -182 458 -98 248 -213 538 -255 645 -42 107 -194 492 -338 855 -143 363
-323 820 -401 1015 l-140 355 -58 0 c-32 0 -68 -1 -80 -3z"/>
<path d="M1789 3742 l-25 -3 67 -167 c36 -92 276 -700 533 -1352 257 -652 471
-1194 476 -1205 5 -11 60 -148 121 -305 61 -157 115 -289 119 -293 4 -4 41 -7
82 -5 l75 3 -44 115 c-24 63 -50 129 -57 145 -8 17 -71 176 -141 355 -70 179
-133 339 -140 355 -7 17 -50 125 -96 240 -45 116 -151 383 -235 595 -83 212
-247 626 -363 920 -253 642 -235 600 -263 601 -13 0 -36 1 -53 2 -16 1 -42 1
-56 -1z"/>
<path d="M2088 3739 c-7 -5 80 -244 133 -364 4 -11 83 -209 174 -440 91 -231
215 -544 275 -695 60 -151 174 -441 255 -645 80 -203 219 -553 307 -778 l162
-407 79 0 c59 0 78 3 74 13 -3 6 -72 183 -155 392 -200 506 -309 782 -496
1255 -171 430 -258 650 -481 1215 -80 204 -154 389 -163 412 -9 24 -24 43 -32
44 -76 4 -124 3 -132 -2z"/>
<path d="M2399 3740 c-6 -5 214 -585 260 -685 5 -11 68 -168 139 -350 71 -181
304 -772 517 -1313 l388 -982 79 0 c43 0 78 2 78 4 0 3 -23 62 -51 133 -28 70
-61 155 -74 188 -38 101 -405 1029 -415 1050 -9 19 -113 283 -342 865 -55 140
-106 269 -113 285 -7 17 -81 203 -165 415 -83 212 -153 386 -155 388 -6 6
-136 7 -146 2z"/>
<path d="M1546 3192 c-3 -5 -39 -94 -80 -198 -41 -104 -108 -276 -150 -381
-218 -552 -314 -795 -534 -1353 -77 -195 -183 -464 -236 -598 -53 -133 -96
-245 -96 -247 0 -3 35 -5 78 -5 l77 0 64 163 c35 89 70 176 77 192 7 17 34 84
59 150 26 66 90 228 142 360 52 132 139 355 194 495 55 140 105 264 109 275 5
11 37 90 70 175 33 85 65 164 70 175 4 11 36 90 69 175 33 85 85 218 116 295
30 77 55 145 55 152 0 23 -77 185 -84 175z"/>
<path d="M1502 2292 c-112 -284 -207 -526 -212 -537 -5 -11 -104 -261 -220
-555 -116 -294 -214 -544 -219 -555 -5 -11 -26 -63 -46 -115 -21 -52 -39 -101
-42 -107 -4 -10 15 -13 75 -13 l81 0 107 273 c58 149 112 286 120 302 7 17
154 391 328 833 l316 803 -36 94 c-20 52 -39 95 -43 95 -3 0 -97 -233 -209
-518z"/>
<path d="M1833 2343 c-36 -88 -221 -556 -473 -1198 -44 -110 -120 -303 -170
-430 -51 -126 -98 -247 -106 -268 l-13 -38 80 3 80 3 55 140 c56 143 276 700
520 1315 l136 345 -23 65 c-12 36 -30 82 -38 103 l-17 39 -31 -79z"/>
<path d="M1770 1530 c-14 -3 -29 -24 -45 -65 -14 -33 -24 -64 -22 -69 2 -7
270 -10 549 -7 l57 1 -31 73 -30 72 -228 0 c-126 0 -238 -2 -250 -5z"/>
<path d="M1641 1240 c-3 -3 -18 -35 -33 -72 l-26 -68 21 -1 c110 -4 808 -1
813 4 3 3 -8 36 -25 74 l-30 68 -356 0 c-196 0 -360 -2 -364 -5z"/>
<path d="M1513 923 c-7 -18 -20 -49 -28 -70 -8 -20 -13 -38 -11 -41 5 -4 60
-4 738 -3 l326 1 -27 65 c-15 36 -31 68 -35 72 -4 5 -219 8 -478 8 l-471 0
-14 -32z"/>
</g>
</svg>
